<svg width="48" height="48" viewBox="0 0 48 48" fill="none" xmlns="http://www.w3.org/2000/svg">
<g clip-path="url(#clip0_64_4816)" filter="url(#filter0_d_64_4816)">
<path d="M43.3815 8.07007V37.5669C43.3815 38.5731 42.5691 39.3814 41.5629 39.3814H6.43717C5.431 39.3814 4.61865 38.5731 4.61865 37.5669V8.07007H43.3815Z" fill="white"/>
<path d="M43.3815 2.43711V8.07007H4.61865V2.43711C4.61865 1.43094 5.431 0.618591 6.43717 0.618591H41.5629C42.5691 0.618591 43.3815 1.43094 43.3815 2.43711V2.43711Z" fill="#38BFF2"/>
<path d="M9.59832 4.34245C9.59832 4.86737 9.1723 5.29347 8.6473 5.29347C8.1223 5.29347 7.69629 4.86745 7.69629 4.34245C7.69629 3.81745 8.1223 3.39526 8.6473 3.39526C9.1723 3.39526 9.59832 3.81753 9.59832 4.34245Z" fill="#D7E9FF"/>
<path d="M13.6193 4.34245C13.6193 4.86737 13.1933 5.29347 12.6683 5.29347C12.1433 5.29347 11.7173 4.86745 11.7173 4.34245C11.7173 3.81745 12.1433 3.39526 12.6683 3.39526C13.1933 3.39526 13.6193 3.81753 13.6193 4.34245Z" fill="#D7E9FF"/>
<path d="M17.6408 4.34245C17.6408 4.86737 17.2148 5.29347 16.6898 5.29347C16.1648 5.29347 15.7388 4.86745 15.7388 4.34245C15.7388 3.81745 16.1648 3.39526 16.6898 3.39526C17.2148 3.39526 17.6408 3.81753 17.6408 4.34245Z" fill="#D7E9FF"/>
<path d="M40.3036 4.34184C40.3036 4.86707 39.8743 5.29129 39.3491 5.29129H29.2839C28.7587 5.29129 28.3345 4.86707 28.3345 4.34184C28.3345 3.8166 28.7587 3.39746 29.2839 3.39746H39.3492C39.8743 3.39746 40.3036 3.8166 40.3036 4.34184V4.34184Z" fill="#D7E9FF"/>
<path d="M41.5627 0.206177H6.43707C5.20684 0.206177 4.20605 1.20688 4.20605 2.43719V37.567C4.20605 38.7949 5.20676 39.7938 6.43707 39.7938H41.5627C42.7929 39.7938 43.7937 38.7949 43.7937 37.567C43.7937 33.1532 43.7937 7.6711 43.7937 2.43719C43.7937 1.20688 42.793 0.206177 41.5627 0.206177V0.206177ZM5.03082 2.43719C5.03082 1.6618 5.66184 1.03094 6.43707 1.03094H41.5627C42.3379 1.03094 42.9689 1.6618 42.9689 2.43719V7.65766H5.03082V2.43719ZM42.9689 37.567C42.9689 38.34 42.3379 38.9691 41.5627 38.9691H6.43707C5.66184 38.9691 5.03082 38.34 5.03082 37.567V8.48243H42.9689V37.567Z" fill="#1A2E35"/>
<path d="M9.58307 24.1462C10.3832 24.1462 11.034 24.79 11.034 25.5811V29.1787C11.034 30.4333 12.0476 31.4541 13.2932 31.4541C13.5212 31.4541 13.7056 31.2695 13.7056 31.0418C13.7056 30.8141 13.5211 30.6295 13.2932 30.6295C12.5023 30.6295 11.8588 29.9787 11.8588 29.1787V25.5811C11.8588 24.8121 11.4698 24.1316 10.877 23.7232C11.4605 23.3088 11.8427 22.6302 11.8427 21.8708V18.273C11.8427 17.473 12.4862 16.8222 13.2775 16.8222C13.5055 16.8222 13.6899 16.6376 13.6899 16.4098C13.6899 16.1821 13.5054 15.9975 13.2775 15.9975C12.0316 15.9975 11.0179 17.0184 11.0179 18.273V21.8708C11.0179 22.658 10.3712 23.3088 9.57667 23.3216C9.03479 23.3302 9.04221 24.1462 9.58307 24.1462V24.1462Z" fill="#1A2E35"/>
<path d="M36.1412 25.5811V29.1787C36.1412 29.9787 35.4977 30.6295 34.7068 30.6295C34.4788 30.6295 34.2944 30.8141 34.2944 31.0418C34.2944 31.2695 34.4789 31.4542 34.7068 31.4542C35.9523 31.4542 36.966 30.4333 36.966 29.1787V25.5811C36.966 24.79 37.6168 24.1463 38.4169 24.1463C38.9584 24.1463 38.9645 23.3302 38.4233 23.3215C37.6288 23.3088 36.9821 22.6581 36.9821 21.8707V18.2729C36.9821 17.0183 35.9685 15.9974 34.7225 15.9974C34.4945 15.9974 34.3101 16.182 34.3101 16.4098C34.3101 16.6375 34.4946 16.8221 34.7225 16.8221C35.5138 16.8221 36.1573 17.4729 36.1573 18.2729V21.8707C36.1573 22.6303 36.5395 23.3088 37.123 23.7231C36.5303 24.1316 36.1412 24.8121 36.1412 25.5811V25.5811Z" fill="#1A2E35"/>
<path d="M21.2311 30.8948C21.4435 30.9773 21.6821 30.8712 21.7643 30.6588L27.0043 17.0901C27.0865 16.8776 26.9806 16.6388 26.7683 16.5569C26.5569 16.4749 26.3173 16.5806 26.2351 16.7929L20.9951 30.3616C20.913 30.5741 21.0189 30.8129 21.2311 30.8948V30.8948Z" fill="#1A2E35"/>
<path d="M32.275 23.7321L27.521 26.9449C27.3321 27.0726 27.2826 27.3289 27.4103 27.5176C27.5382 27.7075 27.7956 27.7549 27.9825 27.6283L33.241 24.0744C33.4843 23.9101 33.4815 23.5544 33.2418 23.3915L27.9833 19.8239C27.7957 19.6962 27.5387 19.7451 27.4107 19.9336C27.2826 20.1221 27.3318 20.3786 27.5202 20.5065L32.275 23.7321Z" fill="#1A2E35"/>
<path d="M14.7572 24.0734L19.9662 27.6273C20.1536 27.7556 20.411 27.7071 20.5393 27.5189C20.6677 27.3309 20.619 27.0743 20.4309 26.9459L15.7204 23.7321L20.4317 20.5053C20.6193 20.3767 20.6672 20.1199 20.5388 19.9321C20.41 19.7442 20.1542 19.6963 19.9654 19.8247L14.7564 23.3923C14.644 23.4692 14.5771 23.5969 14.5771 23.733C14.5771 23.8691 14.6449 23.9967 14.7572 24.0734V24.0734Z" fill="#1A2E35"/>
<path d="M8.6473 2.98279C7.89582 2.98279 7.28418 3.59271 7.28418 4.34232C7.28418 5.09419 7.8959 5.70568 8.6473 5.70568C9.39918 5.70568 10.0109 5.09419 10.0109 4.34232C10.0108 3.59271 9.3991 2.98279 8.6473 2.98279V2.98279ZM8.6473 4.88099C8.35051 4.88099 8.10887 4.63935 8.10887 4.3424C8.10887 4.0474 8.35051 3.80763 8.6473 3.80763C8.94449 3.80763 9.18613 4.04748 9.18613 4.3424C9.18605 4.63935 8.94449 4.88099 8.6473 4.88099V4.88099Z" fill="#1A2E35"/>
<path d="M12.6688 2.98279C11.9169 2.98279 11.3052 3.59271 11.3052 4.34232C11.3052 5.09419 11.9169 5.70568 12.6688 5.70568C13.4203 5.70568 14.0319 5.09419 14.0319 4.34232C14.0319 3.59271 13.4202 2.98279 12.6688 2.98279ZM12.6688 4.88099C12.3716 4.88099 12.1299 4.63935 12.1299 4.3424C12.1299 4.0474 12.3716 3.80763 12.6688 3.80763C12.9656 3.80763 13.2072 4.04748 13.2072 4.3424C13.2072 4.63935 12.9656 4.88099 12.6688 4.88099Z" fill="#1A2E35"/>
<path d="M16.6898 2.98279C15.9379 2.98279 15.3262 3.59271 15.3262 4.34232C15.3262 5.09419 15.9379 5.70568 16.6898 5.70568C17.4412 5.70568 18.0529 5.09419 18.0529 4.34232C18.0529 3.59271 17.4412 2.98279 16.6898 2.98279ZM16.6898 4.88099C16.3926 4.88099 16.1509 4.63935 16.1509 4.3424C16.1509 4.0474 16.3926 3.80763 16.6898 3.80763C16.9866 3.80763 17.2282 4.04748 17.2282 4.3424C17.2282 4.63935 16.9866 4.88099 16.6898 4.88099Z" fill="#1A2E35"/>
<path d="M39.3491 2.98511H29.2838C28.5328 2.98511 27.9219 3.59378 27.9219 4.34183C27.9219 5.09284 28.5328 5.70378 29.2838 5.70378H39.3491C40.1025 5.70378 40.7159 5.09284 40.7159 4.34183C40.7159 3.59378 40.1025 2.98511 39.3491 2.98511V2.98511ZM39.3491 4.87901H29.2838C28.9874 4.87901 28.7466 4.638 28.7466 4.34183C28.7466 4.04362 28.9827 3.80987 29.2838 3.80987H39.3491C39.6479 3.80987 39.8911 4.04847 39.8911 4.34183C39.8911 4.638 39.6479 4.87901 39.3491 4.87901V4.87901Z" fill="#1A2E35"/>
</g>
<defs>
<filter id="filter0_d_64_4816" x="0" y="0" width="48" height="48" filterUnits="userSpaceOnUse" color-interpolation-filters="sRGB">
<feFlood flood-opacity="0" result="BackgroundImageFix"/>
<feColorMatrix in="SourceAlpha" type="matrix" values="0 0 0 0 0 0 0 0 0 0 0 0 0 0 0 0 0 0 127 0" result="hardAlpha"/>
<feOffset dy="4"/>
<feGaussianBlur stdDeviation="2"/>
<feComposite in2="hardAlpha" operator="out"/>
<feColorMatrix type="matrix" values="0 0 0 0 0 0 0 0 0 0 0 0 0 0 0 0 0 0 0.25 0"/>
<feBlend mode="normal" in2="BackgroundImageFix" result="effect1_dropShadow_64_4816"/>
<feBlend mode="normal" in="SourceGraphic" in2="effect1_dropShadow_64_4816" result="shape"/>
</filter>
<clipPath id="clip0_64_4816">
<rect width="40" height="40" fill="white" transform="translate(4)"/>
</clipPath>
</defs>
</svg>
